<svg xmlns="http://www.w3.org/2000/svg" width="24" height="24" viewBox="0 0 24 24" fill="none">
  <path d="M21.57 12.6602C21.43 12.2602 21.05 12.0002 20.6 12.0002H13.41C12.95 12.0002 12.58 12.2602 12.43 12.6602L11 16.7702V22.2802C11 22.6602 11.32 23.0002 11.7 23.0002H12.32C12.7 23.0002 13 22.6202 13 22.2402V21.0002H21V22.2402C21 22.6202 21.31 23.0002 21.69 23.0002H22.3C22.68 23.0002 23 22.6602 23 22.2802V16.7702L21.57 12.6602ZM13.41 13.0002H20.6L21.63 16.0002H12.38L13.41 13.0002ZM13 19.0002C12.45 19.0002 12 18.5502 12 18.0002C12 17.4502 12.45 17.0002 13 17.0002C13.55 17.0002 14 17.4502 14 18.0002C14 18.5502 13.55 19.0002 13 19.0002ZM21 19.0002C20.45 19.0002 20 18.5502 20 18.0002C20 17.4502 20.45 17.0002 21 17.0002C21.55 17.0002 22 17.4502 22 18.0002C22 18.5502 21.55 19.0002 21 19.0002ZM6.66 14.5302L7 17.0002L5.95 18.0602L4.19 14.8802L1 13.1102L2.06 12.0302L4.56 12.4002L8.43 8.53021L1 4.62021L2.42 3.21021L11.61 5.33021L15.5 1.44021C16.06 0.855215 17.06 0.855215 17.62 1.44021C18.21 2.03021 18.21 3.00021 17.62 3.56021L13.73 7.45021L14.55 11.0002H13.41C12.54 11.0002 11.79 11.5002 11.5 12.3102L11.47 12.3702L10.56 10.6302L6.66 14.5302Z" fill="#DEE2E6"/>
</svg>