<svg xmlns="http://www.w3.org/2000/svg" width="24" height="24" viewBox="0 0 24 24" fill="none">
  <g clip-path="url(#clip0_1_162)">
    <path d="M10.1602 17.121C10.668 17.3788 11.1289 17.6952 11.543 18.0702C11.957 18.4452 12.3086 18.8671 12.5977 19.3358C12.8867 19.8046 13.1094 20.3046 13.2656 20.8358C13.4219 21.3671 13.5 21.9218 13.5 22.4999H12C12 21.8827 11.8828 21.3007 11.6484 20.7538C11.4141 20.2069 11.0938 19.7303 10.6875 19.3241C10.2812 18.9178 9.80078 18.5936 9.24609 18.3514C8.69141 18.1093 8.10938 17.9921 7.5 17.9999C6.875 17.9999 6.29297 18.1171 5.75391 18.3514C5.21484 18.5858 4.73828 18.9061 4.32422 19.3124C3.91016 19.7186 3.58594 20.1991 3.35156 20.7538C3.11719 21.3085 3 21.8905 3 22.4999H1.5C1.5 21.9296 1.57812 21.3788 1.73438 20.8475C1.89062 20.3163 2.11328 19.8124 2.40234 19.3358C2.69141 18.8593 3.04297 18.4374 3.45703 18.0702C3.87109 17.703 4.33203 17.3866 4.83984 17.121C4.26172 16.6991 3.8125 16.1718 3.49219 15.5389C3.17188 14.9061 3.00781 14.2264 3 13.4999C3 12.8827 3.11719 12.3007 3.35156 11.7538C3.58594 11.2069 3.90625 10.7303 4.3125 10.3241C4.71875 9.91785 5.19531 9.59363 5.74219 9.35144C6.28906 9.10925 6.875 8.99207 7.5 8.99988C8.21875 8.99988 8.89453 9.16003 9.52734 9.48035C10.1602 9.80066 10.6914 10.2538 11.1211 10.8397C11.418 10.2538 11.7969 9.73035 12.2578 9.26941C12.7188 8.80847 13.2461 8.42957 13.8398 8.13269C13.2617 7.703 12.8125 7.17175 12.4922 6.53894C12.1719 5.90613 12.0078 5.22644 12 4.49988C12 3.88269 12.1172 3.30066 12.3516 2.75378C12.5859 2.20691 12.9062 1.73035 13.3125 1.3241C13.7188 0.917847 14.1953 0.593628 14.7422 0.35144C15.2891 0.109253 15.875 -0.00793457 16.5 -0.00012207C17.1172 -0.00012207 17.6992 0.117065 18.2461 0.35144C18.793 0.585815 19.2695 0.906128 19.6758 1.31238C20.082 1.71863 20.4062 2.1991 20.6484 2.75378C20.8906 3.30847 21.0078 3.8905 21 4.49988C21 5.23425 20.832 5.92566 20.4961 6.5741C20.1602 7.22253 19.6914 7.75769 19.0898 8.17957C19.457 8.37488 19.8086 8.60535 20.1445 8.87097C20.4805 9.1366 20.7852 9.43738 21.0586 9.77332C21.332 10.1093 21.5781 10.4608 21.7969 10.828C22.0156 11.1952 22.1836 11.5858 22.3008 11.9999H20.7305C20.5586 11.5936 20.3281 11.2108 20.0391 10.8514C19.75 10.4921 19.418 10.1718 19.043 9.8905C18.668 9.60925 18.2656 9.39441 17.8359 9.24597C17.4062 9.09753 16.9609 9.01941 16.5 9.0116C15.875 9.0116 15.293 9.12878 14.7539 9.36316C14.2148 9.59753 13.7383 9.91785 13.3242 10.3241C12.9102 10.7303 12.5859 11.2069 12.3516 11.7538C12.1172 12.3007 12 12.8827 12 13.4999C12 14.2186 11.8398 14.8944 11.5195 15.5272C11.1992 16.16 10.7461 16.6913 10.1602 17.121ZM16.5 1.49988C16.0859 1.49988 15.6992 1.578 15.3398 1.73425C14.9805 1.8905 14.6602 2.10535 14.3789 2.37878C14.0977 2.65222 13.8828 2.96863 13.7344 3.328C13.5859 3.68738 13.5078 4.078 13.5 4.49988C13.5 4.91394 13.5781 5.30066 13.7344 5.66003C13.8906 6.01941 14.1055 6.33972 14.3789 6.62097C14.6523 6.90222 14.9688 7.11707 15.3281 7.2655C15.6875 7.41394 16.0781 7.49207 16.5 7.49988C16.9141 7.49988 17.3008 7.42175 17.6602 7.2655C18.0195 7.10925 18.3398 6.89441 18.6211 6.62097C18.9023 6.34753 19.1172 6.03113 19.2656 5.67175C19.4141 5.31238 19.4922 4.92175 19.5 4.49988C19.5 4.08582 19.4219 3.6991 19.2656 3.33972C19.1094 2.98035 18.8945 2.66003 18.6211 2.37878C18.3477 2.09753 18.0312 1.88269 17.6719 1.73425C17.3125 1.58582 16.9219 1.50769 16.5 1.49988ZM4.5 13.4999C4.5 13.9139 4.57812 14.3007 4.73438 14.66C4.89062 15.0194 5.10547 15.3397 5.37891 15.621C5.65234 15.9022 5.96875 16.1171 6.32812 16.2655C6.6875 16.4139 7.07812 16.4921 7.5 16.4999C7.91406 16.4999 8.30078 16.4218 8.66016 16.2655C9.01953 16.1093 9.33984 15.8944 9.62109 15.621C9.90234 15.3475 10.1172 15.0311 10.2656 14.6718C10.4141 14.3124 10.4922 13.9218 10.5 13.4999C10.5 13.0858 10.4219 12.6991 10.2656 12.3397C10.1094 11.9803 9.89453 11.66 9.62109 11.3788C9.34766 11.0975 9.03125 10.8827 8.67188 10.7343C8.3125 10.5858 7.92188 10.5077 7.5 10.4999C7.08594 10.4999 6.69922 10.578 6.33984 10.7343C5.98047 10.8905 5.66016 11.1053 5.37891 11.3788C5.09766 11.6522 4.88281 11.9686 4.73438 12.328C4.58594 12.6874 4.50781 13.078 4.5 13.4999ZM24 17.9999V23.9999H16.5V17.9999H17.25V16.4999C17.25 16.0858 17.3281 15.6991 17.4844 15.3397C17.6406 14.9803 17.8555 14.66 18.1289 14.3788C18.4023 14.0975 18.7188 13.8827 19.0781 13.7343C19.4375 13.5858 19.8281 13.5077 20.25 13.4999C20.6641 13.4999 21.0508 13.578 21.4102 13.7343C21.7695 13.8905 22.0898 14.1053 22.3711 14.3788C22.6523 14.6522 22.8672 14.9686 23.0156 15.328C23.1641 15.6874 23.2422 16.078 23.25 16.4999V17.9999H24ZM18.75 17.9999H21.75V16.4999C21.75 16.2889 21.7109 16.0936 21.6328 15.9139C21.5547 15.7343 21.4492 15.578 21.3164 15.4452C21.1836 15.3124 21.0234 15.203 20.8359 15.1171C20.6484 15.0311 20.4531 14.9921 20.25 14.9999C20.0391 14.9999 19.8438 15.0389 19.6641 15.1171C19.4844 15.1952 19.3281 15.3007 19.1953 15.4335C19.0625 15.5663 18.9531 15.7264 18.8672 15.9139C18.7812 16.1014 18.7422 16.2968 18.75 16.4999V17.9999ZM22.5 19.4999H18V22.4999H22.5V19.4999Z" fill="#DEE2E6"/>
  </g>
  <defs>
    <clipPath id="clip0_1_162">
      <rect width="24" height="24" fill="white"/>
    </clipPath>
  </defs>
</svg>