<svg xmlns="http://www.w3.org/2000/svg" width="24" height="24" viewBox="0 0 24 24" fill="none">
  <path d="M2.57122 16.2859C3.51799 16.2859 4.28551 15.1347 4.28551 13.7145C4.28551 12.2943 3.51799 11.1431 2.57122 11.1431C1.62445 11.1431 0.856934 12.2943 0.856934 13.7145C0.856934 15.1347 1.62445 16.2859 2.57122 16.2859Z" stroke="#DEE2E6" stroke-width="1.71429" stroke-linecap="round" stroke-linejoin="round"/>
  <path d="M7.71429 8.57157C8.66106 8.57157 9.42857 7.4203 9.42857 6.00014C9.42857 4.57998 8.66106 3.42871 7.71429 3.42871C6.76751 3.42871 6 4.57998 6 6.00014C6 7.4203 6.76751 8.57157 7.71429 8.57157Z" stroke="#DEE2E6" stroke-width="1.71429" stroke-linecap="round" stroke-linejoin="round"/>
  <path d="M16.2856 8.57157C17.2323 8.57157 17.9999 7.4203 17.9999 6.00014C17.9999 4.57998 17.2323 3.42871 16.2856 3.42871C15.3388 3.42871 14.5713 4.57998 14.5713 6.00014C14.5713 7.4203 15.3388 8.57157 16.2856 8.57157Z" stroke="#DEE2E6" stroke-width="1.71429" stroke-linecap="round" stroke-linejoin="round"/>
  <path d="M21.4282 16.2859C22.3749 16.2859 23.1424 15.1347 23.1424 13.7145C23.1424 12.2943 22.3749 11.1431 21.4282 11.1431C20.4814 11.1431 19.7139 12.2943 19.7139 13.7145C19.7139 15.1347 20.4814 16.2859 21.4282 16.2859Z" stroke="#DEE2E6" stroke-width="1.71429" stroke-linecap="round" stroke-linejoin="round"/>
  <path d="M17.1426 17.1431C17.1426 19.5088 14.3655 20.5716 11.9998 20.5716C9.63408 20.5716 6.85693 19.5088 6.85693 17.1431C6.85693 14.7774 8.57122 11.1431 11.9998 11.1431C15.4284 11.1431 17.1426 14.7774 17.1426 17.1431Z" stroke="#DEE2E6" stroke-width="1.71429" stroke-linecap="round" stroke-linejoin="round"/>
</svg>