<svg xmlns="http://www.w3.org/2000/svg" width="24" height="24" viewBox="0 0 24 24" fill="none">
  <path d="M16.249 14.2641C15.0821 13.2268 13.575 12.6538 12.0136 12.6538C10.4523 12.6538 8.94521 13.2268 7.77825 14.2641C7.67964 14.3495 7.59897 14.4535 7.54091 14.5703C7.48286 14.6871 7.44859 14.8142 7.44008 14.9443C7.43158 15.0744 7.44901 15.2049 7.49137 15.3283C7.53373 15.4516 7.60017 15.5653 7.68683 15.6627C7.77349 15.7602 7.87864 15.8394 7.99619 15.8959C8.11373 15.9523 8.24132 15.9849 8.37155 15.9916C8.50177 15.9983 8.63204 15.9791 8.75478 15.9351C8.87751 15.891 8.99028 15.8231 9.08653 15.7351C9.89306 15.0183 10.9346 14.6223 12.0136 14.6223C13.0927 14.6223 14.1342 15.0183 14.9407 15.7351C15.1359 15.9086 15.392 15.9974 15.6527 15.9821C15.9134 15.9667 16.1573 15.8485 16.3308 15.6533C16.5043 15.4581 16.5932 15.202 16.5778 14.9413C16.5625 14.6806 16.4442 14.4367 16.249 14.2632V14.2641Z" fill="#DEE2E6"/>
  <path d="M12.013 8.61085C9.3701 8.60721 6.82528 9.61172 4.89741 11.4196C4.7998 11.507 4.72063 11.6131 4.66454 11.7315C4.60845 11.8499 4.57658 11.9784 4.57079 12.1093C4.56499 12.2402 4.5854 12.371 4.6308 12.4939C4.67621 12.6168 4.7457 12.7295 4.83521 12.8252C4.92471 12.9209 5.03243 12.9978 5.15203 13.0513C5.27164 13.1048 5.40074 13.134 5.53175 13.1369C5.66276 13.1399 5.79304 13.1167 5.91497 13.0687C6.0369 13.0207 6.148 12.9488 6.24178 12.8573C7.80716 11.3938 9.87008 10.5796 12.013 10.5796C14.156 10.5796 16.2189 11.3938 17.7843 12.8573C17.8781 12.9488 17.9892 13.0207 18.1111 13.0687C18.233 13.1167 18.3633 13.1399 18.4943 13.1369C18.6253 13.134 18.7544 13.1048 18.874 13.0513C18.9936 12.9978 19.1014 12.9209 19.1909 12.8252C19.2804 12.7295 19.3499 12.6168 19.3953 12.4939C19.4407 12.371 19.4611 12.2402 19.4553 12.1093C19.4495 11.9784 19.4176 11.8499 19.3615 11.7315C19.3054 11.6131 19.2263 11.507 19.1287 11.4196C17.2008 9.61172 14.656 8.60721 12.013 8.61085Z" fill="#DEE2E6"/>
  <path d="M21.6562 8.24353C19.0022 5.87558 15.5698 4.56689 12.013 4.56689C8.45629 4.56689 5.02386 5.87558 2.36992 8.24353C2.27018 8.32873 2.18847 8.43301 2.1296 8.55023C2.07073 8.66746 2.03588 8.79527 2.02711 8.92615C2.01833 9.05704 2.0358 9.18836 2.0785 9.31239C2.12119 9.43643 2.18825 9.55068 2.27572 9.64843C2.3632 9.74619 2.46933 9.82547 2.58788 9.88163C2.70643 9.93778 2.83501 9.96968 2.96606 9.97543C3.09711 9.98119 3.228 9.9607 3.35101 9.91516C3.47403 9.86962 3.58671 9.79995 3.68242 9.71025C5.97538 7.66527 8.94043 6.53515 12.0128 6.53515C15.0852 6.53515 18.0503 7.66527 20.3432 9.71025C20.5378 9.8843 20.7936 9.9739 21.0543 9.95935C21.315 9.9448 21.5592 9.82729 21.7333 9.63267C21.9073 9.43805 21.9969 9.18225 21.9824 8.92156C21.9678 8.66087 21.8503 8.41664 21.6557 8.24259L21.6562 8.24353Z" fill="#DEE2E6"/>
  <path d="M12.0132 19.9409C12.8416 19.9409 13.5132 19.2693 13.5132 18.4409C13.5132 17.6125 12.8416 16.9409 12.0132 16.9409C11.1848 16.9409 10.5132 17.6125 10.5132 18.4409C10.5132 19.2693 11.1848 19.9409 12.0132 19.9409Z" fill="#DEE2E6"/>
</svg>